<svg xmlns="http://www.w3.org/2000/svg" width="28.239" height="28.172" viewBox="0 0 28.239 28.172">
  <g id="Group_19" data-name="Group 19" transform="translate(-331.848 -99.463)">
    <g id="Group_17" data-name="Group 17" transform="translate(331.848 99.463)">
      <g id="Group_16" data-name="Group 16" transform="translate(0 0)">
        <path id="Path_12" data-name="Path 12" d="M1019.466,219.071l-12.9-4a1.887,1.887,0,0,0-1.117,0l-12.9,4a.936.936,0,0,0-.662.9v2.477a.942.942,0,0,0,.941.941v.941a.944.944,0,0,0,.58.87,1.4,1.4,0,0,0,.832,1.868v9.585a1.413,1.413,0,0,0-.941,1.326v.6a.938.938,0,0,0-.471.81v.941a.942.942,0,0,0-.941.941v1.412a.471.471,0,0,0,.471.47h27.3a.471.471,0,0,0,.471-.47v-1.412a.941.941,0,0,0-.471-.811v-1.072a.941.941,0,0,0-.941-.941v-.47a1.413,1.413,0,0,0-.941-1.326v-9.585a1.386,1.386,0,0,0,.855-1.8h.086a.942.942,0,0,0,.941-.942v-1.072a.939.939,0,0,0,.471-.81V219.97A.936.936,0,0,0,1019.466,219.071Zm-26.635.9,12.9-4a.944.944,0,0,1,.559,0l12.9,4v2.477H992.83Zm19.767,5.3v.47a1.411,1.411,0,0,0,.941,1.325v9.585a1.412,1.412,0,0,0-.941,1.326v.47H999.419v-.47a1.412,1.412,0,0,0-.941-1.326v-9.585a1.411,1.411,0,0,0,.941-1.325v-.47Zm4.236,11.295h-2.353v-9.412h2.353Zm-21.65-9.412h2.353v9.412h-2.353Zm3.294-1.412a.47.47,0,0,1-.47.47h-3.294a.47.47,0,1,1,0-.941h3.765Zm-4.235,12.237a.471.471,0,0,1,.47-.471h3.294a.471.471,0,0,1,.47.471v.47h-4.235Zm-.471,1.412h24.944v.941H993.772Zm25.415,2.824H992.83v-.941h26.356Zm-5.648-3.766v-.47a.471.471,0,0,1,.47-.471h3.294a.471.471,0,0,1,.47.471v.47Zm4.235-12.707a.47.47,0,0,1-.47.47h-3.294a.47.47,0,0,1-.47-.47v-.47h3.765A.47.47,0,0,1,1017.774,225.741Zm.941-1.412H993.772v-.941h24.944Z" transform="translate(-991.889 -214.983)" fill="#fff"/>
        <path id="Path_13" data-name="Path 13" d="M994.93,222.208h23.531a.492.492,0,0,0,.471-.5.471.471,0,0,0-.33-.45l-11.629-3.609a.942.942,0,0,0-.558,0l-11.627,3.609a.471.471,0,0,0-.33.45v.025A.471.471,0,0,0,994.93,222.208Zm11.766-3.654,8.743,2.713H997.954Z" transform="translate(-992.576 -215.686)" fill="#fff"/>
        <path id="Path_14" data-name="Path 14" d="M1009.1,241.605a5.648,5.648,0,1,0-5.648-5.648A5.648,5.648,0,0,0,1009.1,241.605Zm0-10.354a4.706,4.706,0,1,1-4.706,4.706A4.706,4.706,0,0,1,1009.1,231.251Z" transform="translate(-994.981 -219.081)" fill="#fff"/>
      </g>
    </g>
    <g id="problem1" transform="translate(341.962 112.245)">
      <path id="Path_4362" data-name="Path 4362" d="M4,0a4,4,0,1,0,4,4A4,4,0,0,0,4,0ZM4,6.561a.524.524,0,0,1-.527-.554A.524.524,0,0,1,4,5.453a.514.514,0,0,1,.527.554A.519.519,0,0,1,4,6.561Zm.208-2.115c-.08.272-.331.277-.415,0a10.026,10.026,0,0,1-.439-2.317c0-1.038,1.3-1.043,1.3,0A10.263,10.263,0,0,1,4.212,4.445Z" fill="#fff"/>
    </g>
  </g>
</svg>
