<svg id="Group_20" data-name="Group 20" xmlns="http://www.w3.org/2000/svg" width="28.187" height="26.426" viewBox="0 0 28.187 26.426">
  <path id="Path_52" data-name="Path 52" d="M1279.977,2138.029h4.4a2.756,2.756,0,0,0,2.753-2.752.551.551,0,0,0-.551-.551h-4.4a2.756,2.756,0,0,0-2.753,2.753A.55.55,0,0,0,1279.977,2138.029Zm2.2-2.2h3.759a1.655,1.655,0,0,1-1.557,1.1h-3.76A1.656,1.656,0,0,1,1282.18,2135.827Z" transform="translate(-1276.894 -2133.625)" fill="#fff"/>
  <path id="Path_53" data-name="Path 53" d="M1306.941,2135.76h6.607a2.756,2.756,0,0,0,2.191-1.1h2.213a2.756,2.756,0,0,0,2.753-2.753.551.551,0,0,0-.551-.551h-6.606a2.754,2.754,0,0,0-2.191,1.1h-2.214a2.756,2.756,0,0,0-2.753,2.752A.551.551,0,0,0,1306.941,2135.76Zm2.2-2.2h2.507a.552.552,0,0,0,.476-.274,1.635,1.635,0,0,1,1.421-.828h5.961a1.654,1.654,0,0,1-1.557,1.1h-2.508a.55.55,0,0,0-.476.273,1.634,1.634,0,0,1-1.421.828h-5.962A1.654,1.654,0,0,1,1309.143,2133.558Z" transform="translate(-1295.049 -2131.356)" fill="#fff"/>
  <path id="Path_4363" data-name="Path 4363" d="M4,0a4,4,0,1,0,4,4A4,4,0,0,0,4,0ZM4,6.561a.524.524,0,0,1-.527-.554A.524.524,0,0,1,4,5.453a.514.514,0,0,1,.527.554A.519.519,0,0,1,4,6.561Zm.208-2.115c-.08.272-.331.277-.415,0a10.026,10.026,0,0,1-.439-2.317c0-1.038,1.3-1.043,1.3,0A10.263,10.263,0,0,1,4.212,4.445Z" transform="translate(20.178 3.782)" fill="#fff"/>
  <path id="Path_54" data-name="Path 54" d="M1299.577,2154.883a.55.55,0,0,0-.56.018l-6.091,3.867v-3.4a.55.55,0,0,0-.846-.465l-6.091,3.867v-3.4a.547.547,0,0,0-.548-.55c-.105-1.155-.416-4.572-.555-6.107a.55.55,0,0,0-.548-.5h-2.2a.551.551,0,0,0-.549.5c-.1,1.144-.754,8.3-.828,9.115l-1.376.917v-3.375a.551.551,0,0,0-.856-.459l-.74.494c-.127-1.4-.489-5.381-.608-6.692a.551.551,0,0,0-.548-.5h-2.2a.551.551,0,0,0-.549.5c-.052.569-.84,9.249-.9,9.9l-1.06.706a.551.551,0,0,0-.245.458v8.809a.551.551,0,0,0,.551.55h27.086a.551.551,0,0,0,.551-.55v-5.726a.551.551,0,0,0-1.1,0v1.872h-3.633v-2.752a.551.551,0,0,0-.551-.551h-6.606a.55.55,0,0,0-.551.551v2.752h-3.634v-2.752a.55.55,0,0,0-.551-.551h-6.606a.551.551,0,0,0-.551.551v2.752h-3.3v-4.66l5.505-3.67v3.375a.55.55,0,0,0,.856.458l5.751-3.834v3.375a.55.55,0,0,0,.845.465l6.091-3.867v3.4a.551.551,0,0,0,.845.465l6.091-3.867v1.531a.551.551,0,1,0,1.1,0v-2.532a.55.55,0,0,0-.285-.482Zm-.816,10.943v2.2h-3.633v-2.2Zm-4.735,2.2h-2.2v-5.505h2.2Zm-5.505-5.505h2.2v5.505h-2.2Zm-1.1,3.3v2.2h-3.634v-2.2Zm-4.734,2.2h-2.2v-5.505h2.2Zm-5.505-5.505h2.2v5.505h-2.2Zm-1.1,3.3v2.2h-3.3v-2.2Zm-1.349-14.314h1.6l.417,4.584-2.587,1.725Zm1.4-2.2.1,1.1h-1.4l.1-1.1Zm7.708,0,.1,1.1h-1.4l.1-1.1Zm-1.4,2.2h1.6l.354,3.892-2.453,1.635Z" transform="translate(-1271.675 -2142.703)" fill="#fff"/>
</svg>
