<svg id="layers" xmlns="http://www.w3.org/2000/svg" width="28" height="28" viewBox="0 0 28 28">
  <g id="Group_994" data-name="Group 994" transform="translate(0 0)">
    <path id="Path_4063" data-name="Path 4063" d="M27.88,13.527a1,1,0,0,0-.405-.405L23.538,11l3.937-2.12a1,1,0,0,0,0-1.76l-13-7a1,1,0,0,0-.948,0l-13,7a1,1,0,0,0,0,1.76L4.463,11,.526,13.122a1,1,0,0,0,0,1.76L4.463,17,.526,19.122a1,1,0,0,0,0,1.76l13,7a1,1,0,0,0,.948,0l13-7a1,1,0,0,0,0-1.76L23.538,17l3.937-2.12A1,1,0,0,0,27.88,13.527ZM3.109,8,14,2.137,24.892,8,14,13.866ZM24.892,20,14,25.866,3.109,20l3.462-1.864,6.955,3.744a1,1,0,0,0,.948,0l6.955-3.744ZM14,19.866,3.109,14l3.462-1.864,6.955,3.744a1,1,0,0,0,.948,0l6.955-3.744L24.892,14Z" transform="translate(0 -0.002)" fill="#fff"/>
  </g>
</svg>
