<svg xmlns="http://www.w3.org/2000/svg" xmlns:xlink="http://www.w3.org/1999/xlink" width="265.695" height="29.683" viewBox="0 0 265.695 29.683">
  <defs>
    <clipPath id="clip-path">
      <rect width="265.695" height="29.683" fill="none"/>
    </clipPath>
  </defs>
  <g id="Repeat_Grid_1" data-name="Repeat Grid 1" clip-path="url(#clip-path)">
    <g id="Group_1" data-name="Group 1" transform="translate(-768.112 -1250.466)">
      <path id="Path_13" data-name="Path 13" d="M796.024,1257.571a14.934,14.934,0,0,0-5.145-5.061,14.842,14.842,0,0,0-20.195,5.061,8.2,8.2,0,0,1,4.993,4.886,8.19,8.19,0,0,1,15.353,0A8.2,8.2,0,0,1,796.024,1257.571Z" transform="translate(-0.4)" fill="#b2b3b3" fill-rule="evenodd"/>
      <path id="Path_14" data-name="Path 14" d="M790.119,1270.749a8.189,8.189,0,0,1-15.353-3.966,7.17,7.17,0,0,0-4.992-6.832,14.672,14.672,0,0,0-1.194,3.113,14.848,14.848,0,0,0,14.375,18.56,7.156,7.156,0,0,0,7.167-7.163Z" transform="translate(0 -1.475)" fill="#003e64" fill-rule="evenodd"/>
      <path id="Path_15" data-name="Path 15" d="M801.526,1266.783a14.714,14.714,0,0,0-1.661-6.832,7.177,7.177,0,0,0-4.994,6.813v7.7a8.134,8.134,0,0,1-2.775,6.149,14.857,14.857,0,0,0,9.43-13.826Z" transform="translate(-3.73 -1.475)" fill="#d62023" fill-rule="evenodd"/>
      <path id="Path_16" data-name="Path 16" d="M816.124,1273.634a6.021,6.021,0,0,0,3.786-1.121,3.611,3.611,0,0,0,1.47-3.014,3.23,3.23,0,0,0-1.048-2.572,8.418,8.418,0,0,0-2.9-1.526c-.533-.165-1.378-.386-1.764-.514l-.588-.2c-.386-.166-.534-.35-.534-.589,0-.569.57-.844,1.691-.844a7.853,7.853,0,0,1,2.278.367,8.732,8.732,0,0,1,2.039.881v-3.179a9.088,9.088,0,0,0-4.355-1.067c-3.087,0-5.053,1.378-5.053,3.859a4.22,4.22,0,0,0,.459,1.893,5.028,5.028,0,0,0,1.25,1.176,5.277,5.277,0,0,0,.845.4l.844.331.938.275,1.158.349a3.4,3.4,0,0,1,.827.33c.294.2.5.367.5.753,0,.68-.661,1.011-1.966,1.011a7.585,7.585,0,0,1-2.647-.514,6.555,6.555,0,0,1-2.2-1.25v3.381a8.6,8.6,0,0,0,4.98,1.378Zm9.592-.257,1.084-2.72h4.778l1.084,2.72h3.547l-5.4-12.937h-3.179l-5.4,12.937Zm3.473-8.8,1.342,3.436h-2.683l1.341-3.436Zm11.688,8.8v-7.112l5.7,7.112h2.738v-12.864h-3.234v7.075l-5.622-7.075h-2.831v12.864Zm14.848-3.823a4.039,4.039,0,0,1,0-5.219,3.206,3.206,0,0,1,2.425-1.029,3.166,3.166,0,0,1,2.408,1.029,3.983,3.983,0,0,1,0,5.219,3.163,3.163,0,0,1-2.408,1.03,3.2,3.2,0,0,1-2.425-1.03Zm7.277,2.132a7.016,7.016,0,1,0-4.851,1.947,6.5,6.5,0,0,0,4.851-1.947Zm5.513,1.691,1.084-2.72h4.778l1.084,2.72h3.547l-5.4-12.937h-3.179l-5.4,12.937Zm3.473-8.8,1.342,3.436h-2.683l1.341-3.436Zm13.047,8.8h-3.307v-9.96h-3.859v-2.9h11.044v2.9h-3.878v9.96Zm18.461,3.216a5.018,5.018,0,0,0,2.058-.423v-2.738a3.08,3.08,0,0,1-1.525.386,2.157,2.157,0,0,1-1.746-.791,6.422,6.422,0,0,0,2.831-2.444,6.584,6.584,0,0,0,1.047-3.639,6.861,6.861,0,1,0-7.424,6.653c1.782,2.2,3.216,3,4.759,3Zm-6.542-7.039a4.039,4.039,0,0,1,0-5.219,3.207,3.207,0,0,1,2.425-1.029,3.168,3.168,0,0,1,2.407,1.029,3.983,3.983,0,0,1,0,5.219,3.167,3.167,0,0,1-2.407,1.03,3.2,3.2,0,0,1-2.425-1.03Zm11.1-1.561a5.405,5.405,0,0,0,1.6,4.172,6.3,6.3,0,0,0,8.086,0,5.406,5.406,0,0,0,1.6-4.172v-7.479h-3.309v7.645a2.335,2.335,0,1,1-4.667,0v-7.645h-3.307v7.479Zm16.888,5.384v-4.906h1.323l3.638,4.906h3.8l-3.9-5.275a3.766,3.766,0,0,0,2.5-3.62,3.651,3.651,0,0,0-1.268-2.849,4.863,4.863,0,0,0-3.363-1.121h-6.046v12.864Zm0-10.07H927.5c.9,0,1.47.5,1.47,1.249s-.57,1.214-1.47,1.214h-2.554v-2.463Zm13.469,10.07v-12.864H935.1v12.864Zm12.018,0v-2.9h-6.175v-9.96h-3.307v12.864Zm5.091,0v-12.864h-3.308v12.864Zm7.075.257a6.018,6.018,0,0,0,3.785-1.121,3.609,3.609,0,0,0,1.471-3.014,3.233,3.233,0,0,0-1.048-2.572,8.3,8.3,0,0,0-2.9-1.526c-.531-.171-1.381-.383-1.764-.514l-.589-.2c-.4-.137-.533-.35-.533-.589,0-.569.57-.844,1.691-.844a7.849,7.849,0,0,1,2.278.367,8.707,8.707,0,0,1,2.04.881v-3.179a9.09,9.09,0,0,0-4.355-1.067c-3.087,0-5.054,1.378-5.054,3.859a4.016,4.016,0,0,0,.46,1.893,4.4,4.4,0,0,0,1.25,1.176,4.126,4.126,0,0,0,.844.4l.845.331.937.275,1.158.349a3.722,3.722,0,0,1,.827.33c.286.214.5.367.5.753,0,.68-.662,1.011-1.967,1.011a7.577,7.577,0,0,1-2.646-.514,6.55,6.55,0,0,1-2.206-1.25v3.381a8.6,8.6,0,0,0,4.981,1.378Zm10.456-.257v-5.348H977.9v5.348h3.308v-12.864H977.9v4.575h-4.852v-4.575h-3.308v12.864Zm20.11,0a5.132,5.132,0,0,0,3.327-1.011,3.3,3.3,0,0,0,1.267-2.683,3.5,3.5,0,0,0-.752-2.3,3.1,3.1,0,0,0-1.691-1.121,2.7,2.7,0,0,0,1.507-2.5c0-2.114-1.655-3.253-4.006-3.253h-6.267v12.864Zm-3.308-5.495h2.665c.974,0,1.617.515,1.617,1.378s-.607,1.361-1.617,1.361h-2.665v-2.739Zm0-4.686h2.463c.809,0,1.323.423,1.323,1.139,0,.68-.515,1.1-1.323,1.1h-2.463V1263.2Zm12.22,10.181,1.084-2.72h4.778l1.084,2.72h3.547l-5.4-12.937h-3.179l-5.4,12.937Zm3.473-8.8,1.342,3.436h-2.683l1.341-3.436Zm11.688,8.8v-7.112l5.7,7.112h2.738v-12.864h-3.234v7.075l-5.622-7.075h-2.831v12.864Zm14.2,0v-5.715l5.036,5.715h4.024l-5.9-6.947,4.981-5.917h-3.97l-4.172,4.906v-4.906h-3.308v12.864Z" transform="translate(-6.693 -1.523)" fill="#003e64" fill-rule="evenodd"/>
    </g>
  </g>
</svg>
